<svg viewBox="0 0 58 40" xmlns="http://www.w3.org/2000/svg" xmlns:xlink="http://www.w3.org/1999/xlink" class="9s-white-svg">
  <path d="M51.12 19.017c-5.429-2.603-11.914-.259-14.485 5.237a11.138 11.138 0 00-.817 2.46l6.312 3.027a4.487 4.487 0 01.354-2.681c1.041-2.225 3.666-3.175 5.864-2.12 2.198 1.054 3.136 3.712 2.094 5.937-1.034 2.21-3.631 3.16-5.82 2.139l-11.655-5.59.003-.005-.026-.012 5.739-12.266c2.129-5.362-.21-11.541-5.437-14.048-5.428-2.604-11.912-.26-14.484 5.236-2.572 5.496-.256 12.062 5.172 14.665.792.38 1.607.652 2.43.827l2.99-6.39a4.331 4.331 0 01-2.649-.359c-2.197-1.054-3.135-3.712-2.094-5.937s3.667-3.175 5.865-2.12c2.183 1.047 3.12 3.677 2.112 5.893l-5.476 11.702-12.186-5.844c-5.296-2.156-11.4.212-13.876 5.504-2.572 5.495-.256 12.061 5.172 14.665 5.428 2.604 11.913.26 14.485-5.236.375-.803.643-1.628.816-2.46l-6.312-3.028c.154.88.052 1.813-.354 2.682-1.04 2.225-3.667 3.174-5.864 2.12-2.198-1.054-3.135-3.713-2.094-5.938 1.034-2.21 3.631-3.16 5.82-2.138l11.63 5.578-.002.005 5.833 2.797 12.235 5.868c5.296 2.156 11.4-.213 13.876-5.504 2.572-5.496.256-12.062-5.172-14.666" fill="#fff" fill-rule="evenodd"/>
</svg>
